<?xml version="1.0" encoding="utf-8"?>
<!-- Generator: Adobe Illustrator 24.0.3, SVG Export Plug-In . SVG Version: 6.00 Build 0)  -->
<svg version="1.1" id="Layer_1" xmlns="http://www.w3.org/2000/svg" xmlns:xlink="http://www.w3.org/1999/xlink" x="0px" y="0px"
	 viewBox="0 0 187.98 152.5" style="enable-background:new 0 0 187.98 152.5;" xml:space="preserve">
<style type="text/css">
	.st0{fill:#33647E;}
	.st1{fill:#42A7C6;}
	.st2{fill:#24272A;}
	.st3{fill:#FFFFFF;}
	.st4{fill:#672F25;}
	.st5{fill:#AA2D29;}
</style>
<g>
	<path class="st0" d="M44.97,0h-36C4.02,0,0,4.02,0,8.97v134.57c0,4.95,4.01,8.97,8.97,8.97h30.01c4.95,0,8.97-4.01,8.97-8.97v-5.39
		c0-4.95-4.01-8.97-8.97-8.97h-6.69c-4.95,0-8.97-4.01-8.97-8.97V32.29c0-4.95,4.01-8.97,8.97-8.97h6.34c1.89,0,3.73,0.6,5.26,1.7
		l83.13,60.19c5.93,4.29,14.23,0.06,14.23-7.26v-3.83c0-2.83-1.34-5.49-3.6-7.19L50.33,1.78C48.78,0.63,46.9,0,44.97,0z"/>
	<path class="st1" d="M143.01,152.5h36c4.95,0,8.97-4.01,8.97-8.97V8.97c0-4.95-4.01-8.97-8.97-8.97H149
		c-4.95,0-8.97,4.01-8.97,8.97v5.39c0,4.95,4.01,8.97,8.97,8.97h6.69c4.95,0,8.97,4.01,8.97,8.97v87.91c0,4.95-4.01,8.97-8.97,8.97
		h-6.34c-1.89,0-3.73-0.6-5.26-1.7L60.96,67.28c-5.93-4.29-14.23-0.06-14.23,7.26v3.83c0,2.83,1.34,5.49,3.6,7.19l87.31,65.17
		C139.2,151.88,141.08,152.5,143.01,152.5z"/>
</g>
</svg>
