<?xml version="1.0" encoding="UTF-8"?>
<svg width="1200pt" height="1200pt" version="1.1" viewBox="0 0 1200 1200" xmlns="http://www.w3.org/2000/svg">
 <path d="m1125 499.88c6.6992 0 12.887-3.5742 16.238-9.375 3.3477-5.8008 3.3477-12.949 0-18.75-3.3516-5.8008-9.5391-9.375-16.238-9.375h-126v-81.375h126c6.6992 0 12.887-3.5742 16.238-9.375 3.3477-5.8008 3.3477-12.949 0-18.75-3.3516-5.8008-9.5391-9.375-16.238-9.375h-126.19c-1.4805-37.27-16.949-72.613-43.324-98.988s-61.719-41.844-98.988-43.324v-126.19c0-6.6992-3.5742-12.887-9.375-16.238-5.8008-3.3477-12.949-3.3477-18.75 0-5.8008 3.3516-9.375 9.5391-9.375 16.238v126h-81.375v-126c0-6.6992-3.5742-12.887-9.375-16.238-5.8008-3.3477-12.949-3.3477-18.75 0-5.8008 3.3516-9.375 9.5391-9.375 16.238v126h-81.375v-126c0-6.6992-3.5742-12.887-9.375-16.238-5.8008-3.3477-12.949-3.3477-18.75 0-5.8008 3.3516-9.375 9.5391-9.375 16.238v126h-81.375v-126c0-6.6992-3.5742-12.887-9.375-16.238-5.8008-3.3477-12.949-3.3477-18.75 0-5.8008 3.3516-9.375 9.5391-9.375 16.238v126h-81.375v-126c0-6.6992-3.5742-12.887-9.375-16.238-5.8008-3.3477-12.949-3.3477-18.75 0-5.8008 3.3516-9.375 9.5391-9.375 16.238v126.19c-37.27 1.4805-72.613 16.949-98.988 43.324s-41.844 61.719-43.324 98.988h-126.19c-6.6992 0-12.887 3.5742-16.238 9.375-3.3477 5.8008-3.3477 12.949 0 18.75 3.3516 5.8008 9.5391 9.375 16.238 9.375h126v81.375h-126c-6.6992 0-12.887 3.5742-16.238 9.375-3.3477 5.8008-3.3477 12.949 0 18.75 3.3516 5.8008 9.5391 9.375 16.238 9.375h126v81.375h-126c-6.6992 0-12.887 3.5742-16.238 9.375-3.3477 5.8008-3.3477 12.949 0 18.75 3.3516 5.8008 9.5391 9.375 16.238 9.375h126v81.375h-126c-6.6992 0-12.887 3.5742-16.238 9.375-3.3477 5.8008-3.3477 12.949 0 18.75 3.3516 5.8008 9.5391 9.375 16.238 9.375h126v81.375h-126c-6.6992 0-12.887 3.5742-16.238 9.375-3.3477 5.8008-3.3477 12.949 0 18.75 3.3516 5.8008 9.5391 9.375 16.238 9.375h126.19c1.4805 37.27 16.949 72.613 43.324 98.988s61.719 41.844 98.988 43.324v126.19c0 6.6992 3.5742 12.887 9.375 16.238 5.8008 3.3477 12.949 3.3477 18.75 0 5.8008-3.3516 9.375-9.5391 9.375-16.238v-126h81.375v126c0 6.6992 3.5742 12.887 9.375 16.238 5.8008 3.3477 12.949 3.3477 18.75 0 5.8008-3.3516 9.375-9.5391 9.375-16.238v-126h81.375v126c0 6.6992 3.5742 12.887 9.375 16.238 5.8008 3.3477 12.949 3.3477 18.75 0 5.8008-3.3516 9.375-9.5391 9.375-16.238v-126h81.375v126c0 6.6992 3.5742 12.887 9.375 16.238 5.8008 3.3477 12.949 3.3477 18.75 0 5.8008-3.3516 9.375-9.5391 9.375-16.238v-126h81.375v126c0 6.6992 3.5742 12.887 9.375 16.238 5.8008 3.3477 12.949 3.3477 18.75 0 5.8008-3.3516 9.375-9.5391 9.375-16.238v-126.19c37.27-1.4805 72.613-16.949 98.988-43.324s41.844-61.719 43.324-98.988h126.19c6.6992 0 12.887-3.5742 16.238-9.375 3.3477-5.8008 3.3477-12.949 0-18.75-3.3516-5.8008-9.5391-9.375-16.238-9.375h-126v-81.375h126c6.6992 0 12.887-3.5742 16.238-9.375 3.3477-5.8008 3.3477-12.949 0-18.75-3.3516-5.8008-9.5391-9.375-16.238-9.375h-126v-81.375h126c6.6992 0 12.887-3.5742 16.238-9.375 3.3477-5.8008 3.3477-12.949 0-18.75-3.3516-5.8008-9.5391-9.375-16.238-9.375h-126v-81.375zm-472.88 300c-13.984 14.266-33.082 22.363-53.062 22.5-19.977 0.13281-39.18-7.7109-53.355-21.789-14.172-14.082-22.145-33.234-22.145-53.211s7.9727-39.129 22.145-53.211c14.176-14.078 33.379-21.922 53.355-21.789 19.98 0.13672 39.078 8.2344 53.062 22.5 13.52 13.984 21.074 32.676 21.074 52.125s-7.5547 38.141-21.074 52.125zm69.375-147.38c-3.5547 3.625-8.4258 5.6562-13.5 5.625-4.7891-0.11719-9.3516-2.0625-12.75-5.4375-25.199-25.27-59.371-39.547-95.059-39.723-35.684-0.17578-69.992 13.766-95.441 38.785-4.7578 4.7227-11.672 6.5508-18.137 4.793-6.4688-1.7578-11.508-6.832-13.219-13.312-1.7148-6.4805 0.16016-13.383 4.918-18.105 32.34-32.289 76.176-50.422 121.88-50.422s89.535 18.133 121.88 50.422c3.4766 3.5938 5.3711 8.4297 5.2656 13.43s-2.2031 9.75-5.8281 13.195zm69-69.188c-3.5078 3.5781-8.3008 5.6055-13.312 5.625-4.8242 0.050781-9.4453-1.9219-12.75-5.4375-43.703-43.441-102.82-67.824-164.44-67.824s-120.73 24.383-164.44 67.824c-4.7578 4.7227-11.672 6.5508-18.137 4.793-6.4688-1.7578-11.508-6.832-13.219-13.312-1.7148-6.4805 0.16016-13.383 4.918-18.105 50.656-50.344 119.18-78.602 190.59-78.602s139.94 28.258 190.59 78.602c3.2969 3.4531 5.1484 8.0352 5.1836 12.805 0.035156 4.7734-1.75 9.3828-4.9961 12.883zm69.188-69.188c-3.5039 3.4336-8.2188 5.3594-13.125 5.3594s-9.6211-1.9258-13.125-5.3594c-61.852-61.969-145.75-96.883-233.3-97.094-87.555-0.21094-171.62 34.301-233.77 95.969-3.5117 3.4922-8.2656 5.4531-13.219 5.4531s-9.707-1.9609-13.219-5.4531c-3.5508-3.5195-5.5469-8.3125-5.5469-13.312s1.9961-9.793 5.5469-13.312c69.035-68.641 162.43-107.17 259.78-107.17s190.75 38.531 259.78 107.17c3.6914 3.5078 5.7969 8.3672 5.832 13.461 0.035157 5.0898-2.0039 9.9805-5.6445 13.539z" fill="#4c25e0"/>
</svg>
